<svg width="211" height="222" viewBox="0 0 211 222" fill="none" xmlns="http://www.w3.org/2000/svg">
<g opacity="0.9">
<path fill-rule="evenodd" clip-rule="evenodd" d="M86.3745 18.868C92.4552 16.483 98.9522 15.2625 105.5 15.2625C112.048 15.2625 118.544 16.483 124.625 18.868C130.706 21.2531 136.274 24.7652 140.994 29.235C145.716 33.7062 149.503 39.0542 152.102 44.9953C154.702 50.9391 156.052 57.3399 156.052 63.825C156.052 67.6564 153.1 70.7625 149.458 70.7625C145.817 70.7625 142.864 67.6564 142.864 63.825C142.864 59.3775 141.94 54.9527 140.122 50.7962C138.303 46.637 135.614 42.8076 132.172 39.5482C128.729 36.2876 124.604 33.6675 120.019 31.869C115.433 30.0703 110.498 29.1375 105.5 29.1375C100.502 29.1375 95.5668 30.0703 90.981 31.869C86.3955 33.6675 82.271 36.2876 78.8276 39.5482C75.3855 42.8076 72.6968 46.637 70.8775 50.7962C69.0593 54.9527 68.1353 59.3775 68.1353 63.825C68.1353 67.6564 65.1831 70.7625 61.5415 70.7625C57.8999 70.7625 54.9478 67.6564 54.9478 63.825C54.9478 57.3399 56.2978 50.9391 58.8978 44.9953C61.4967 39.0542 65.2838 33.7062 70.0056 29.235C74.726 24.7652 80.2934 21.2531 86.3745 18.868Z" fill="#FF5D67"/>
<path fill-rule="evenodd" clip-rule="evenodd" d="M18.1194 113.817C14.1823 87.1795 33.7621 63.1278 59.3838 63.1278H151.674C177.295 63.1278 196.875 87.1795 192.938 113.817L184.497 170.927C181.334 192.329 163.818 208.113 143.232 208.113H67.8248C47.2388 208.113 29.7237 192.329 26.5604 170.927L18.1194 113.817ZM59.3838 77.0028C41.8532 77.0028 28.4565 93.4593 31.1502 111.685L39.5913 168.795C41.7556 183.438 53.7396 194.238 67.8248 194.238H143.232C157.318 194.238 169.302 183.438 171.466 168.795L179.907 111.685C182.601 93.4592 169.204 77.0028 151.674 77.0028H59.3838Z" fill="white"/>
<path fill-rule="evenodd" clip-rule="evenodd" d="M79.125 104.062C82.7666 104.062 85.7187 107.169 85.7187 111C85.7187 113.733 86.2304 116.44 87.2245 118.965C88.2186 121.49 89.6757 123.784 91.5125 125.717C93.3494 127.649 95.5301 129.182 97.93 130.228C100.33 131.274 102.902 131.813 105.5 131.813C108.098 131.813 110.67 131.274 113.07 130.228C115.47 129.182 117.651 127.649 119.487 125.717C121.324 123.784 122.781 121.49 123.775 118.965C124.77 116.44 125.281 113.733 125.281 111C125.281 107.169 128.233 104.063 131.875 104.063C135.517 104.063 138.469 107.169 138.469 111C138.469 115.555 137.616 120.066 135.959 124.274C134.302 128.483 131.874 132.307 128.812 135.528C125.751 138.749 122.117 141.304 118.117 143.047C114.117 144.79 109.83 145.688 105.5 145.688C101.17 145.688 96.8834 144.79 92.8834 143.047C88.8835 141.304 85.249 138.749 82.1876 135.528C79.1261 132.307 76.6977 128.483 75.0408 124.274C73.384 120.066 72.5312 115.555 72.5313 111C72.5313 107.169 75.4834 104.062 79.125 104.062Z" fill="#FF5D67"/>
</g>
</svg>
