<svg width="237" height="215" viewBox="0 0 237 215" fill="none" xmlns="http://www.w3.org/2000/svg">
<path fill-rule="evenodd" clip-rule="evenodd" d="M9.90234 20.1563C9.90234 16.4456 13.2182 13.4375 17.3086 13.4375H36.0838C43.4796 13.4375 50.0556 17.707 52.4413 24.0577L57.066 36.3686H180.242C206.148 36.3686 227.149 55.4198 227.149 78.9207V116.03C227.149 139.531 206.148 158.582 180.242 158.582H106.339C83.6315 158.582 64.1851 143.827 60.1711 123.552L44.5747 44.7744L38.4206 28.3922C38.0798 27.4849 37.1403 26.875 36.0838 26.875H17.3086C13.2182 26.875 9.90234 23.8669 9.90234 20.1563ZM60.6203 49.8061L74.7503 121.177C77.4968 135.049 90.8022 145.144 106.339 145.144H180.242C197.967 145.144 212.336 132.109 212.336 116.03V78.9207C212.336 62.8412 197.967 49.8061 180.242 49.8061H60.6203Z" fill="white"/>
<path fill-rule="evenodd" clip-rule="evenodd" d="M112.575 80.177C116.665 80.177 119.981 83.1851 119.981 86.8958C119.981 89.5427 120.556 92.1637 121.673 94.6092C122.789 97.0547 124.426 99.2767 126.489 101.148C128.552 103.02 131.001 104.505 133.697 105.518C136.393 106.531 139.282 107.052 142.2 107.052C145.118 107.052 148.007 106.531 150.703 105.518C153.398 104.505 155.848 103.02 157.911 101.148C159.974 99.2767 161.611 97.0547 162.727 94.6092C163.844 92.1637 164.419 89.5427 164.419 86.8958C164.419 83.1851 167.735 80.177 171.825 80.177C175.915 80.177 179.231 83.1851 179.231 86.8958C179.231 91.3073 178.273 95.6757 176.412 99.7515C174.551 103.827 171.824 107.531 168.385 110.65C164.946 113.77 160.864 116.244 156.371 117.932C151.878 119.621 147.063 120.49 142.2 120.49C137.337 120.49 132.522 119.621 128.029 117.932C123.536 116.244 119.454 113.77 116.015 110.65C112.576 107.531 109.849 103.827 107.988 99.7515C106.127 95.6757 105.169 91.3073 105.169 86.8958C105.169 83.1851 108.485 80.177 112.575 80.177Z" fill="#EA7C69"/>
<path fill-rule="evenodd" clip-rule="evenodd" d="M93.8125 183.646C93.8125 176.225 100.444 170.208 108.625 170.208H108.724C116.904 170.208 123.536 176.225 123.536 183.646C123.536 191.067 116.904 197.083 108.724 197.083H108.625C100.444 197.083 93.8125 191.067 93.8125 183.646Z" fill="white"/>
<path fill-rule="evenodd" clip-rule="evenodd" d="M172.812 183.646C172.812 176.225 179.444 170.208 187.625 170.208H187.724C195.904 170.208 202.536 176.225 202.536 183.646C202.536 191.067 195.904 197.083 187.724 197.083H187.625C179.444 197.083 172.812 191.067 172.812 183.646Z" fill="white"/>
</svg>
