<svg width="220" height="223" viewBox="0 0 220 223" fill="none" xmlns="http://www.w3.org/2000/svg">
<path fill-rule="evenodd" clip-rule="evenodd" d="M70.6489 73.6135C70.6489 70.1352 73.4307 67.3154 76.8622 67.3154H143.138C146.569 67.3154 149.351 70.1352 149.351 73.6135C149.351 77.0918 146.569 79.9115 143.138 79.9115H76.8622C73.4307 79.9115 70.6489 77.0918 70.6489 73.6135Z" fill="#EA7C69"/>
<path fill-rule="evenodd" clip-rule="evenodd" d="M70.6489 107.203C70.6489 103.725 73.4307 100.905 76.8622 100.905H143.138C146.569 100.905 149.351 103.725 149.351 107.203C149.351 110.681 146.569 113.501 143.138 113.501H76.8622C73.4307 113.501 70.6489 110.681 70.6489 107.203Z" fill="#EA7C69"/>
<path fill-rule="evenodd" clip-rule="evenodd" d="M70.6489 140.793C70.6489 137.314 73.4307 134.495 76.8622 134.495H143.138C146.569 134.495 149.351 137.314 149.351 140.793C149.351 144.271 146.569 147.091 143.138 147.091H76.8622C73.4307 147.091 70.6489 144.271 70.6489 140.793Z" fill="#EA7C69"/>
<path fill-rule="evenodd" clip-rule="evenodd" d="M159.706 35.8252H60.2934C53.4304 35.8252 47.8668 41.4647 47.8668 48.4213V175.988C47.8668 182.014 53.9619 186.063 59.4125 183.658C67.9281 179.901 77.609 179.943 86.093 183.773L87.0423 184.201C89.7906 185.442 92.9293 185.442 95.6776 184.201L98.2034 183.061C105.712 179.671 114.288 179.671 121.796 183.061L124.322 184.201C127.071 185.442 130.209 185.442 132.958 184.201L133.907 183.773C142.391 179.943 152.072 179.901 160.587 183.658C166.038 186.063 172.133 182.014 172.133 175.988V48.4213C172.133 41.4647 166.569 35.8252 159.706 35.8252ZM60.2934 23.2291C46.5674 23.2291 35.4402 34.508 35.4402 48.4213V175.988C35.4402 191.087 50.7135 201.233 64.3717 195.208C69.6909 192.861 75.7379 192.887 81.0373 195.279L81.9867 195.708C87.9531 198.401 94.7669 198.401 100.733 195.708L103.259 194.568C107.55 192.631 112.45 192.631 116.741 194.568L119.267 195.708C125.233 198.401 132.047 198.401 138.013 195.708L138.963 195.279C144.262 192.887 150.309 192.861 155.628 195.208C169.286 201.233 184.56 191.087 184.56 175.988V48.4213C184.56 34.508 173.432 23.2291 159.706 23.2291H60.2934Z" fill="white"/>
</svg>
